<svg width="244" height="154" viewBox="0 0 244 154" fill="none" xmlns="http://www.w3.org/2000/svg">
<path fill-rule="evenodd" clip-rule="evenodd" d="M125.024 0.357651L125.024 6.68707H121.835C74.3167 6.68707 34.907 41.5554 27.8408 87.131L21.5376 86.1537C28.9196 38.5412 69.3688 1.87938 118.645 0.357681L125.024 0.357651ZM216.919 98.6022C215.399 52.5194 181.079 14.7051 136.527 7.79757L137.504 1.49431C185.117 8.87634 221.779 49.3256 223.3 98.6022H243.283V104.981H202.641L140.752 43.3408L103.542 80.5508L123.324 100.334L118.814 104.844L79.9913 66.0212L41.0317 104.981H0.386841V98.6022H36.58C38.2576 52.9665 75.7895 16.4782 121.835 16.4782C167.912 16.4782 205.413 52.9673 207.09 98.6022H216.919ZM200.361 93.7068L140.743 34.3292L99.0313 76.0405L79.9913 57.0005L43.3118 93.68C47.3737 53.8997 80.9831 22.8567 121.835 22.8567C162.725 22.8567 196.315 53.9129 200.361 93.7068Z" fill="#CEE832"/>
<path d="M0.240112 154V116.425H25.5596V122.975H8.18455V131.928H24.2569V138.478H8.18455V147.45H25.633V154H0.240112Z" fill="white"/>
<path d="M44.1297 116.425L51.7072 129.231H52.0008L59.615 116.425H68.5868L57.1197 135.212L68.8437 154H59.7067L52.0008 141.175H51.7072L44.0013 154H34.9009L46.6617 135.212L35.1211 116.425H44.1297Z" fill="white"/>
<path d="M78.419 154V116.425H93.2437C96.0937 116.425 98.5217 116.969 100.528 118.057C102.534 119.134 104.063 120.632 105.115 122.553C106.179 124.461 106.711 126.662 106.711 129.158C106.711 131.653 106.173 133.855 105.096 135.763C104.02 137.671 102.46 139.157 100.418 140.221C98.3871 141.285 95.9286 141.817 93.0419 141.817H83.593V135.451H91.7576C93.2866 135.451 94.5464 135.188 95.5372 134.662C96.5402 134.124 97.2863 133.384 97.7756 132.442C98.2771 131.488 98.5278 130.393 98.5278 129.158C98.5278 127.91 98.2771 126.821 97.7756 125.892C97.2863 124.95 96.5402 124.222 95.5372 123.708C94.5342 123.183 93.2621 122.92 91.7209 122.92H86.3635V154H78.419Z" fill="white"/>
<path d="M116.676 154V116.425H141.995V122.975H124.62V131.928H140.693V138.478H124.62V147.45H142.069V154H116.676Z" fill="white"/>
<path d="M166.437 154H153.116V116.425H166.547C170.326 116.425 173.58 117.177 176.308 118.681C179.035 120.174 181.133 122.32 182.601 125.121C184.081 127.922 184.821 131.274 184.821 135.176C184.821 139.09 184.081 142.453 182.601 145.267C181.133 148.08 179.023 150.239 176.271 151.743C173.531 153.248 170.253 154 166.437 154ZM161.061 147.193H166.106C168.455 147.193 170.43 146.777 172.033 145.946C173.647 145.102 174.858 143.799 175.665 142.038C176.485 140.264 176.895 137.977 176.895 135.176C176.895 132.399 176.485 130.13 175.665 128.369C174.858 126.607 173.653 125.311 172.051 124.479C170.449 123.647 168.473 123.231 166.125 123.231H161.061V147.193Z" fill="white"/>
<path d="M203.455 116.425V154H195.511V116.425H203.455Z" fill="white"/>
<path d="M214.393 154V149.285L233.144 122.975H214.356V116.425H243.125V121.14L224.355 147.45H243.162V154H214.393Z" fill="white"/>
</svg>
